<?xml version="1.0" encoding="utf-8"?>
<!-- Generator: Adobe Illustrator 18.1.1, SVG Export Plug-In . SVG Version: 6.00 Build 0)  -->
<svg version="1.1" id="Layer_1" xmlns="http://www.w3.org/2000/svg" xmlns:xlink="http://www.w3.org/1999/xlink" x="0px" y="0px"
	 viewBox="0 0 146.3 26.2" enable-background="new 0 0 146.3 26.2" xml:space="preserve">
<g>
	<defs>
		<rect id="SVGID_1_" x="0" y="0" width="146.3" height="26.2"/>
	</defs>
	<clipPath id="SVGID_2_">
		<use xlink:href="#SVGID_1_"  overflow="visible"/>
	</clipPath>
	<path clip-path="url(#SVGID_2_)" d="M125.6,0.1L125.5,0l-8.2,3.1v0.4c0.5,0.2,1.1,0.6,1.6,1c0.7,0.5,1.6,1.4,1.6,3.4v11.9
		c0,4-0.5,5.1-3.9,5.5v0.5h13v-0.5c-3.2-0.4-4-1.6-4-5.5V0.1z M137.2,19.7c0,3.9-0.8,5.1-4,5.5v0.5h13v-0.5
		c-3.4-0.4-3.9-1.5-3.9-5.5V7.6c0-4.6-2-7.5-6.8-7.5c-2.8,0-6.2,1.9-8.2,4.2v0.1c1.4-0.5,3.2-1,4.9-1c3.8,0,4.9,1.9,4.9,5.2V19.7z
		 M113.6,9.2c0-4.6-4-8.9-9.5-9.1v0.5c2.9,0.2,4,3.7,4.2,7.5l-9.2,0.7v0.4H113.6z M102.4,0.2c-5.2,0.6-10.5,5.9-10.5,13.2
		c0,7,4.4,12.8,11.9,12.8c6.4,0,9.9-5,10.9-7.6l-0.3-0.2c-1.4,1.9-3.9,3.8-8.3,3.8c-5.9,0-9.1-5.2-9.1-11.3c0-5.3,2-9.6,5.4-10.2
		V0.2z M65.6,0.7v0.5c2.8,0.4,3.6,1.5,5,4.7L79.1,26h0.4l2.3-6.4L76.3,6.7c-0.4-0.9-0.9-2.3-0.9-3.2c0-1.3,1-2.1,3.1-2.3V0.7H65.6z
		 M82.4,0.7v0.5C85,1.4,86.2,2,86.2,4.6c0,1.3-0.7,3.2-0.9,3.7l0.5,0.2c1.7-3.8,4.4-7,7.6-7.2V0.7H82.4z M61.1,13.1
		c0,4.4-0.9,7.8-2.2,9.7c-1,1.5-2.6,2.6-3.9,2.8v0.5c5.1-0.7,11.8-5,11.8-13.1c0-8-6.1-12.9-13.1-13v0.5c0.9,0.1,1.7,0.2,2.6,0.7
		C59.5,2.9,61.1,6.9,61.1,13.1 M45.4,13.1c0-4.4,0.9-8,2.2-9.9c1-1.4,2.4-2.5,3.9-2.6V0.1c-5,0.5-11.8,5-11.8,13.1
		c0,8,6.1,12.8,13.1,13v-0.5c-0.8-0.1-1.7-0.4-2.6-0.9C47.1,23.2,45.4,19.4,45.4,13.1 M15,0.7v0.5c2.8,0.4,3.1,1.5,4.3,4.6l8,20.2
		h0.4l2.3-6.4L25.1,6.7c-0.4-0.9-0.8-2.2-0.8-3.1c0-1.3,0.9-2.2,3-2.5V0.7H15z M30.1,0.7v0.5c2.6,0.2,3.8,1.1,3.8,3
		c0,1.6-0.7,3.7-0.9,4.1l0.5,0.2c1.5-3.5,4.4-6.8,7.6-7.3V0.7H30.1z M0,0.7v0.5c2.8,0.4,3.6,1.6,5,4.7L12.9,26h0.4l2.3-6.4L10.7,6.7
		C10.4,5.8,10,4.5,10,3.6c0-1.4,0.9-2.2,3-2.5V0.7H0z"/>
</g>
</svg>
